<?xml version="1.0" encoding="UTF-8" standalone="no"?>
<!DOCTYPE svg PUBLIC "-//W3C//DTD SVG 1.1//EN" "http://www.w3.org/Graphics/SVG/1.1/DTD/svg11.dtd">
<svg width="100%" height="100%" viewBox="0 0 569 535" version="1.1" xmlns="http://www.w3.org/2000/svg" xmlns:xlink="http://www.w3.org/1999/xlink" xml:space="preserve" xmlns:serif="http://www.serif.com/" style="fill-rule:evenodd;clip-rule:evenodd;stroke-linejoin:round;stroke-miterlimit:2;">
    <g transform="matrix(1,0,0,1,-215.825,-232.81)">
        <g id="logo">
            <g transform="matrix(1,0,0,1,-580,-354.997)">
                <path d="M1364.17,618.857C1364.17,601.72 1350.26,587.807 1333.12,587.807L826.875,587.807C809.738,587.807 795.825,601.72 795.825,618.857L795.825,1074.26C795.825,1091.4 809.738,1105.31 826.875,1105.31L1333.12,1105.31C1350.26,1105.31 1364.17,1091.4 1364.17,1074.26L1364.17,618.857Z" style="fill:rgb(47,76,223);fill-opacity:0;"/>
                <clipPath id="_clip1">
                    <path d="M1364.17,618.857C1364.17,601.72 1350.26,587.807 1333.12,587.807L826.875,587.807C809.738,587.807 795.825,601.72 795.825,618.857L795.825,1074.26C795.825,1091.4 809.738,1105.31 826.875,1105.31L1333.12,1105.31C1350.26,1105.31 1364.17,1091.4 1364.17,1074.26L1364.17,618.857Z"/>
                </clipPath>
                <g clip-path="url(#_clip1)">
                    <g transform="matrix(1,0,0,1,0,-25.3125)">
                        <rect x="795.825" y="587.807" width="568.35" height="517.506" style="fill:rgb(47,142,223);fill-opacity:0;"/>
                        <clipPath id="_clip2">
                            <rect x="795.825" y="587.807" width="568.35" height="517.506"/>
                        </clipPath>
                        <g clip-path="url(#_clip2)">
                            <g transform="matrix(2.36726,0,0,1,-1476.64,-124.317)">
                                <path d="M1364.17,712.123L795.825,712.123L795.825,1128.03C795.825,1128.03 806.509,1107.72 816.158,1089.39C825.031,1072.53 837.662,1072.53 846.536,1089.39C848.24,1092.63 849.976,1095.92 851.68,1099.16C860.553,1116.02 873.184,1116.02 882.058,1099.16C883.762,1095.92 885.498,1092.63 887.202,1089.39C896.075,1072.53 908.706,1072.53 917.58,1089.39C919.283,1092.63 921.02,1095.92 922.723,1099.16C931.597,1116.02 944.228,1116.02 953.102,1099.16C954.805,1095.92 956.542,1092.63 958.245,1089.39C967.119,1072.53 979.75,1072.53 988.623,1089.39C990.327,1092.63 992.063,1095.92 993.767,1099.16C1002.64,1116.02 1015.27,1116.02 1024.14,1099.16C1025.85,1095.92 1027.59,1092.63 1029.29,1089.39C1038.16,1072.53 1050.79,1072.53 1059.67,1089.39C1061.37,1092.63 1063.11,1095.92 1064.81,1099.16C1073.68,1116.02 1086.32,1116.02 1095.19,1099.16C1096.89,1095.92 1098.63,1092.63 1100.33,1089.39C1109.21,1072.53 1121.84,1072.53 1130.71,1089.39C1132.41,1092.63 1134.15,1095.92 1135.86,1099.16C1144.73,1116.02 1157.36,1116.02 1166.23,1099.16C1167.94,1095.92 1169.67,1092.63 1171.38,1089.39C1180.25,1072.53 1192.88,1072.53 1201.76,1089.39C1203.46,1092.63 1205.19,1095.92 1206.9,1099.16C1215.77,1116.02 1228.4,1116.02 1237.28,1099.16C1238.98,1095.92 1240.72,1092.63 1242.42,1089.39C1251.29,1072.53 1263.92,1072.53 1272.8,1089.39C1274.5,1092.63 1276.24,1095.92 1277.94,1099.16C1286.82,1116.02 1299.45,1116.02 1308.32,1099.16C1310.02,1095.92 1311.76,1092.63 1313.46,1089.39C1322.34,1072.53 1334.97,1072.53 1343.84,1089.39C1353.49,1107.72 1364.17,1128.03 1364.17,1128.03L1364.17,712.123Z" style="fill:rgb(251,187,173);"/>
                            </g>
                        </g>
                    </g>
                    <g transform="matrix(1,0,0,1,-2.27374e-13,-76.2914)">
                        <rect x="795.825" y="587.807" width="568.35" height="517.506" style="fill:rgb(47,142,223);fill-opacity:0;"/>
                        <clipPath id="_clip3">
                            <rect x="795.825" y="587.807" width="568.35" height="517.506"/>
                        </clipPath>
                        <g clip-path="url(#_clip3)">
                            <g transform="matrix(2.36726,0,0,1,-1476.64,-124.317)">
                                <path d="M1364.17,712.123L795.825,712.123L795.825,1128.03C795.825,1128.03 806.509,1107.72 816.158,1089.39C825.031,1072.53 837.662,1072.53 846.536,1089.39C848.24,1092.63 849.976,1095.92 851.68,1099.16C860.553,1116.02 873.184,1116.02 882.058,1099.16C883.762,1095.92 885.498,1092.63 887.202,1089.39C896.075,1072.53 908.706,1072.53 917.58,1089.39C919.283,1092.63 921.02,1095.92 922.723,1099.16C931.597,1116.02 944.228,1116.02 953.102,1099.16C954.805,1095.92 956.542,1092.63 958.245,1089.39C967.119,1072.53 979.75,1072.53 988.623,1089.39C990.327,1092.63 992.063,1095.92 993.767,1099.16C1002.64,1116.02 1015.27,1116.02 1024.14,1099.16C1025.85,1095.92 1027.59,1092.63 1029.29,1089.39C1038.16,1072.53 1050.79,1072.53 1059.67,1089.39C1061.37,1092.63 1063.11,1095.92 1064.81,1099.16C1073.68,1116.02 1086.32,1116.02 1095.19,1099.16C1096.89,1095.92 1098.63,1092.63 1100.33,1089.39C1109.21,1072.53 1121.84,1072.53 1130.71,1089.39C1132.41,1092.63 1134.15,1095.92 1135.86,1099.16C1144.73,1116.02 1157.36,1116.02 1166.23,1099.16C1167.94,1095.92 1169.67,1092.63 1171.38,1089.39C1180.25,1072.53 1192.88,1072.53 1201.76,1089.39C1203.46,1092.63 1205.19,1095.92 1206.9,1099.16C1215.77,1116.02 1228.4,1116.02 1237.28,1099.16C1238.98,1095.92 1240.72,1092.63 1242.42,1089.39C1251.29,1072.53 1263.92,1072.53 1272.8,1089.39C1274.5,1092.63 1276.24,1095.92 1277.94,1099.16C1286.82,1116.02 1299.45,1116.02 1308.32,1099.16C1310.02,1095.92 1311.76,1092.63 1313.46,1089.39C1322.34,1072.53 1334.97,1072.53 1343.84,1089.39C1353.49,1107.72 1364.17,1128.03 1364.17,1128.03L1364.17,712.123Z" style="fill:rgb(238,134,149);"/>
                            </g>
                        </g>
                    </g>
                    <g transform="matrix(1,0,0,1,-2.27374e-13,-127.093)">
                        <rect x="795.825" y="587.807" width="568.35" height="517.506" style="fill:rgb(47,142,223);fill-opacity:0;"/>
                        <clipPath id="_clip4">
                            <rect x="795.825" y="587.807" width="568.35" height="517.506"/>
                        </clipPath>
                        <g clip-path="url(#_clip4)">
                            <g transform="matrix(2.36726,0,0,1,-1476.64,-124.317)">
                                <path d="M1364.17,712.123L795.825,712.123L795.825,1128.03C795.825,1128.03 806.509,1107.72 816.158,1089.39C825.031,1072.53 837.662,1072.53 846.536,1089.39C848.24,1092.63 849.976,1095.92 851.68,1099.16C860.553,1116.02 873.184,1116.02 882.058,1099.16C883.762,1095.92 885.498,1092.63 887.202,1089.39C896.075,1072.53 908.706,1072.53 917.58,1089.39C919.283,1092.63 921.02,1095.92 922.723,1099.16C931.597,1116.02 944.228,1116.02 953.102,1099.16C954.805,1095.92 956.542,1092.63 958.245,1089.39C967.119,1072.53 979.75,1072.53 988.623,1089.39C990.327,1092.63 992.063,1095.92 993.767,1099.16C1002.64,1116.02 1015.27,1116.02 1024.14,1099.16C1025.85,1095.92 1027.59,1092.63 1029.29,1089.39C1038.16,1072.53 1050.79,1072.53 1059.67,1089.39C1061.37,1092.63 1063.11,1095.92 1064.81,1099.16C1073.68,1116.02 1086.32,1116.02 1095.19,1099.16C1096.89,1095.92 1098.63,1092.63 1100.33,1089.39C1109.21,1072.53 1121.84,1072.53 1130.71,1089.39C1132.41,1092.63 1134.15,1095.92 1135.86,1099.16C1144.73,1116.02 1157.36,1116.02 1166.23,1099.16C1167.94,1095.92 1169.67,1092.63 1171.38,1089.39C1180.25,1072.53 1192.88,1072.53 1201.76,1089.39C1203.46,1092.63 1205.19,1095.92 1206.9,1099.16C1215.77,1116.02 1228.4,1116.02 1237.28,1099.16C1238.98,1095.92 1240.72,1092.63 1242.42,1089.39C1251.29,1072.53 1263.92,1072.53 1272.8,1089.39C1274.5,1092.63 1276.24,1095.92 1277.94,1099.16C1286.82,1116.02 1299.45,1116.02 1308.32,1099.16C1310.02,1095.92 1311.76,1092.63 1313.46,1089.39C1322.34,1072.53 1334.97,1072.53 1343.84,1089.39C1353.49,1107.72 1364.17,1128.03 1364.17,1128.03L1364.17,712.123Z" style="fill:rgb(74,122,150);"/>
                            </g>
                        </g>
                    </g>
                    <g transform="matrix(1,0,0,1,-2.27374e-13,-177.895)">
                        <rect x="795.825" y="587.807" width="568.35" height="517.506" style="fill-opacity:0;"/>
                        <clipPath id="_clip5">
                            <rect x="795.825" y="587.807" width="568.35" height="517.506"/>
                        </clipPath>
                        <g clip-path="url(#_clip5)">
                            <g transform="matrix(2.36726,0,0,1,-1476.64,-124.317)">
                                <path d="M1364.17,712.123L795.825,712.123L795.825,1128.03C795.825,1128.03 806.509,1107.72 816.158,1089.39C825.031,1072.53 837.662,1072.53 846.536,1089.39C848.24,1092.63 849.976,1095.92 851.68,1099.16C860.553,1116.02 873.184,1116.02 882.058,1099.16C883.762,1095.92 885.498,1092.63 887.202,1089.39C896.075,1072.53 908.706,1072.53 917.58,1089.39C919.283,1092.63 921.02,1095.92 922.723,1099.16C931.597,1116.02 944.228,1116.02 953.102,1099.16C954.805,1095.92 956.542,1092.63 958.245,1089.39C967.119,1072.53 979.75,1072.53 988.623,1089.39C990.327,1092.63 992.063,1095.92 993.767,1099.16C1002.64,1116.02 1015.27,1116.02 1024.14,1099.16C1025.85,1095.92 1027.59,1092.63 1029.29,1089.39C1038.16,1072.53 1050.79,1072.53 1059.67,1089.39C1061.37,1092.63 1063.11,1095.92 1064.81,1099.16C1073.68,1116.02 1086.32,1116.02 1095.19,1099.16C1096.89,1095.92 1098.63,1092.63 1100.33,1089.39C1109.21,1072.53 1121.84,1072.53 1130.71,1089.39C1132.41,1092.63 1134.15,1095.92 1135.86,1099.16C1144.73,1116.02 1157.36,1116.02 1166.23,1099.16C1167.94,1095.92 1169.67,1092.63 1171.38,1089.39C1180.25,1072.53 1192.88,1072.53 1201.76,1089.39C1203.46,1092.63 1205.19,1095.92 1206.9,1099.16C1215.77,1116.02 1228.4,1116.02 1237.28,1099.16C1238.98,1095.92 1240.72,1092.63 1242.42,1089.39C1251.29,1072.53 1263.92,1072.53 1272.8,1089.39C1274.5,1092.63 1276.24,1095.92 1277.94,1099.16C1286.82,1116.02 1299.45,1116.02 1308.32,1099.16C1310.02,1095.92 1311.76,1092.63 1313.46,1089.39C1322.34,1072.53 1334.97,1072.53 1343.84,1089.39C1353.49,1107.72 1364.17,1128.03 1364.17,1128.03L1364.17,712.123Z" style="fill:rgb(41,40,49);"/>
                            </g>
                        </g>
                    </g>
                    <g transform="matrix(1,0,0,1,-4.54747e-13,-233.44)">
                        <rect x="795.825" y="587.807" width="568.35" height="517.506" style="fill:rgb(41,40,49);fill-opacity:0;"/>
                        <clipPath id="_clip6">
                            <rect x="795.825" y="587.807" width="568.35" height="517.506"/>
                        </clipPath>
                        <g clip-path="url(#_clip6)">
                            <g transform="matrix(2.36726,0,0,1,-1476.64,-124.317)">
                                <path d="M1364.17,712.123L795.825,712.123L795.825,1128.03C795.825,1128.03 806.509,1107.72 816.158,1089.39C825.031,1072.53 837.662,1072.53 846.536,1089.39C848.24,1092.63 849.976,1095.92 851.68,1099.16C860.553,1116.02 873.184,1116.02 882.058,1099.16C883.762,1095.92 885.498,1092.63 887.202,1089.39C896.075,1072.53 908.706,1072.53 917.58,1089.39C919.283,1092.63 921.02,1095.92 922.723,1099.16C931.597,1116.02 944.228,1116.02 953.102,1099.16C954.805,1095.92 956.542,1092.63 958.245,1089.39C967.119,1072.53 979.75,1072.53 988.623,1089.39C990.327,1092.63 992.063,1095.92 993.767,1099.16C1002.64,1116.02 1015.27,1116.02 1024.14,1099.16C1025.85,1095.92 1027.59,1092.63 1029.29,1089.39C1038.16,1072.53 1050.79,1072.53 1059.67,1089.39C1061.37,1092.63 1063.11,1095.92 1064.81,1099.16C1073.68,1116.02 1086.32,1116.02 1095.19,1099.16C1096.89,1095.92 1098.63,1092.63 1100.33,1089.39C1109.21,1072.53 1121.84,1072.53 1130.71,1089.39C1132.41,1092.63 1134.15,1095.92 1135.86,1099.16C1144.73,1116.02 1157.36,1116.02 1166.23,1099.16C1167.94,1095.92 1169.67,1092.63 1171.38,1089.39C1180.25,1072.53 1192.88,1072.53 1201.76,1089.39C1203.46,1092.63 1205.19,1095.92 1206.9,1099.16C1215.77,1116.02 1228.4,1116.02 1237.28,1099.16C1238.98,1095.92 1240.72,1092.63 1242.42,1089.39C1251.29,1072.53 1263.92,1072.53 1272.8,1089.39C1274.5,1092.63 1276.24,1095.92 1277.94,1099.16C1286.82,1116.02 1299.45,1116.02 1308.32,1099.16C1310.02,1095.92 1311.76,1092.63 1313.46,1089.39C1322.34,1072.53 1334.97,1072.53 1343.84,1089.39C1353.49,1107.72 1364.17,1128.03 1364.17,1128.03L1364.17,712.123Z" style="fill:rgb(41,40,49);"/>
                            </g>
                        </g>
                    </g>
                </g>
            </g>
            <g transform="matrix(1,0,0,1,-455.518,-112.158)">
                <path d="M671.343,828.723L679.78,828.723L679.78,854.036L705.093,854.036L705.093,862.473L671.343,862.473L671.343,828.723ZM679.78,794.973L688.218,794.973L688.218,820.286L696.655,820.286L696.655,828.723L679.78,828.723L679.78,794.973ZM696.655,811.848L713.53,811.848L713.53,820.286L696.655,820.286L696.655,811.848ZM705.093,845.598L713.53,845.598L713.53,854.036L705.093,854.036L705.093,845.598ZM713.53,820.286L721.968,820.286L721.968,845.598L713.53,845.598L713.53,820.286Z" style="fill:rgb(41,40,49);fill-rule:nonzero;"/>
                <path d="M741.543,828.723L749.98,828.723L749.98,837.161L766.855,837.161L766.855,845.598L749.98,845.598L749.98,854.036L741.543,854.036L741.543,828.723ZM749.98,820.286L758.418,820.286L758.418,828.723L749.98,828.723L749.98,820.286ZM749.98,854.036L775.293,854.036L775.293,862.473L749.98,862.473L749.98,854.036ZM758.418,811.848L775.293,811.848L775.293,820.286L758.418,820.286L758.418,811.848ZM766.855,828.723L775.293,828.723L775.293,837.161L766.855,837.161L766.855,828.723ZM775.293,820.286L783.73,820.286L783.73,828.723L775.293,828.723L775.293,820.286ZM775.293,845.598L783.73,845.598L783.73,854.036L775.293,854.036L775.293,845.598Z" style="fill:rgb(41,40,49);fill-rule:nonzero;"/>
                <path d="M802.743,837.161L811.18,837.161L811.18,854.036L802.743,854.036L802.743,837.161ZM811.18,828.723L828.055,828.723L828.055,837.161L811.18,837.161L811.18,828.723ZM811.18,854.036L836.493,854.036L836.493,862.473L811.18,862.473L811.18,854.036ZM819.618,811.848L844.93,811.848L844.93,820.286L819.618,820.286L819.618,811.848ZM828.055,837.161L844.93,837.161L844.93,854.036L836.493,854.036L836.493,845.598L828.055,845.598L828.055,837.161ZM844.93,820.286L853.368,820.286L853.368,837.161L844.93,837.161L844.93,820.286ZM844.93,854.036L853.368,854.036L853.368,862.473L844.93,862.473L844.93,854.036Z" style="fill:rgb(41,40,49);fill-rule:nonzero;"/>
                <path d="M872.943,828.723L881.38,828.723L881.38,854.036L872.943,854.036L872.943,828.723ZM881.38,820.286L889.818,820.286L889.818,828.723L881.38,828.723L881.38,820.286ZM881.38,854.036L915.13,854.036L915.13,862.473L881.38,862.473L881.38,854.036ZM889.818,811.848L915.13,811.848L915.13,820.286L889.818,820.286L889.818,811.848ZM915.13,820.286L923.568,820.286L923.568,828.723L915.13,828.723L915.13,820.286Z" style="fill:rgb(41,40,49);fill-rule:nonzero;"/>
                <path d="M943.143,828.723L951.58,828.723L951.58,862.473L943.143,862.473L943.143,828.723ZM951.58,794.973L960.018,794.973L960.018,820.286L968.455,820.286L968.455,828.723L951.58,828.723L951.58,794.973ZM968.455,811.848L985.33,811.848L985.33,820.286L968.455,820.286L968.455,811.848ZM976.893,837.161L985.33,837.161L985.33,862.473L976.893,862.473L976.893,837.161ZM985.33,820.286L993.768,820.286L993.768,837.161L985.33,837.161L985.33,820.286Z" style="fill:rgb(41,40,49);fill-rule:nonzero;"/>
                <path d="M1013.34,845.598L1021.78,845.598L1021.78,854.036L1013.34,854.036L1013.34,845.598ZM1021.78,820.286L1030.22,820.286L1030.22,828.723L1021.78,828.723L1021.78,820.286ZM1021.78,854.036L1047.09,854.036L1047.09,862.473L1021.78,862.473L1021.78,854.036ZM1030.22,811.848L1055.53,811.848L1055.53,820.286L1030.22,820.286L1030.22,811.848ZM1030.22,828.723L1047.09,828.723L1047.09,837.161L1030.22,837.161L1030.22,828.723ZM1047.09,837.161L1055.53,837.161L1055.53,854.036L1047.09,854.036L1047.09,837.161Z" style="fill:rgb(41,40,49);fill-rule:nonzero;"/>
                <path d="M1074.54,837.161L1082.98,837.161L1082.98,854.036L1074.54,854.036L1074.54,837.161ZM1082.98,820.286L1091.42,820.286L1091.42,837.161L1082.98,837.161L1082.98,820.286ZM1082.98,854.036L1108.29,854.036L1108.29,862.473L1082.98,862.473L1082.98,854.036ZM1091.42,811.848L1116.73,811.848L1116.73,820.286L1091.42,820.286L1091.42,811.848ZM1108.29,837.161L1116.73,837.161L1116.73,854.036L1108.29,854.036L1108.29,837.161ZM1116.73,820.286L1125.17,820.286L1125.17,837.161L1116.73,837.161L1116.73,820.286Z" style="fill:rgb(41,40,49);fill-rule:nonzero;"/>
                <path d="M1144.74,854.036L1153.18,854.036L1153.18,879.348L1144.74,879.348L1144.74,854.036ZM1153.18,811.848L1161.62,811.848L1161.62,803.411L1170.06,803.411L1170.06,811.848L1186.93,811.848L1186.93,820.286L1170.06,820.286L1170.06,828.723L1161.62,828.723L1161.62,854.036L1153.18,854.036L1153.18,828.723L1161.62,828.723L1161.62,820.286L1153.18,820.286L1153.18,811.848ZM1170.06,794.973L1186.93,794.973L1186.93,803.411L1170.06,803.411L1170.06,794.973Z" style="fill:rgb(41,40,49);fill-rule:nonzero;"/>
                <path d="M1205.94,811.848L1214.38,811.848L1214.38,794.973L1222.82,794.973L1222.82,811.848L1239.69,811.848L1239.69,820.286L1222.82,820.286L1222.82,828.723L1214.38,828.723L1214.38,854.036L1205.94,854.036L1205.94,828.723L1214.38,828.723L1214.38,820.286L1205.94,820.286L1205.94,811.848ZM1214.38,854.036L1231.26,854.036L1231.26,862.473L1214.38,862.473L1214.38,854.036ZM1231.26,845.598L1239.69,845.598L1239.69,854.036L1231.26,854.036L1231.26,845.598Z" style="fill:rgb(41,40,49);fill-rule:nonzero;"/>
            </g>
        </g>
    </g>
</svg>
